<mxfile host="app.diagrams.net" modified="2024-01-10T13:57:08.397Z" agent="Mozilla/5.0 (Macintosh; Intel Mac OS X 10_15_7) AppleWebKit/605.1.15 (KHTML, like Gecko) Version/17.1.1 Safari/605.1.15" version="22.1.18" etag="dZHqTa2GXcEjffSgr99g" type="github">
  <diagram name="Seite-1" id="ZhTd4VzNhVTYntnFud4T">
    <mxGraphModel>
      <root>
        <mxCell id="0" />
        <mxCell id="1" parent="0" />
      </root>
    </mxGraphModel>
  </diagram>
</mxfile>
